<?xml version="1.0" standalone="no"?><svg xmlns="http://www.w3.org/2000/svg" viewBox="0 0 1440 320"><path fill="#273036" fill-opacity="0.8" d="M0,256L40,218.7C80,181,160,107,240,90.7C320,75,400,117,480,165.3C560,213,640,267,720,288C800,309,880,299,960,250.7C1040,203,1120,117,1200,112C1280,107,1360,181,1400,218.7L1440,256L1440,320L1400,320C1360,320,1280,320,1200,320C1120,320,1040,320,960,320C880,320,800,320,720,320C640,320,560,320,480,320C400,320,320,320,240,320C160,320,80,320,40,320L0,320Z"></path></svg>